<mxfile host="app.diagrams.net" modified="2022-06-02T13:22:19.107Z" agent="5.0 (Windows NT 10.0; Win64; x64) AppleWebKit/537.36 (KHTML, like Gecko) Chrome/102.0.5005.61 Safari/537.36" etag="Ah04Iewl0zzam9ja_sXD" version="18.1.3" type="github">
  <diagram id="f9zgFNODCWRv7Krvn37x" name="Page-1">
    <mxGraphModel dx="1060" dy="563" grid="1" gridSize="10" guides="1" tooltips="1" connect="1" arrows="1" fold="1" page="1" pageScale="1" pageWidth="850" pageHeight="1100" math="0" shadow="0">
      <root>
        <mxCell id="0" />
        <mxCell id="1" parent="0" />
        <mxCell id="9skn9m--ghzOTlHxGW_x-2" value="&lt;font style=&quot;font-size: 14px;&quot;&gt;Get students&#39; extras record&lt;/font&gt;" style="ellipse;whiteSpace=wrap;html=1;aspect=fixed;" vertex="1" parent="1">
          <mxGeometry x="40" y="60" width="110" height="110" as="geometry" />
        </mxCell>
        <mxCell id="9skn9m--ghzOTlHxGW_x-3" value="&lt;font style=&quot;font-size: 14px;&quot;&gt;Calculate students&#39;s bill&lt;/font&gt;" style="ellipse;whiteSpace=wrap;html=1;aspect=fixed;" vertex="1" parent="1">
          <mxGeometry x="280" y="60" width="110" height="110" as="geometry" />
        </mxCell>
        <mxCell id="9skn9m--ghzOTlHxGW_x-4" value="" style="endArrow=classic;html=1;rounded=0;exitX=0;exitY=1;exitDx=0;exitDy=0;entryX=1;entryY=1;entryDx=0;entryDy=0;" edge="1" parent="1" source="9skn9m--ghzOTlHxGW_x-3" target="9skn9m--ghzOTlHxGW_x-2">
          <mxGeometry width="50" height="50" relative="1" as="geometry">
            <mxPoint x="90" y="200" as="sourcePoint" />
            <mxPoint x="140" y="150" as="targetPoint" />
          </mxGeometry>
        </mxCell>
        <mxCell id="9skn9m--ghzOTlHxGW_x-5" value="" style="endArrow=classic;html=1;rounded=0;entryX=0;entryY=0;entryDx=0;entryDy=0;exitX=1;exitY=0;exitDx=0;exitDy=0;" edge="1" parent="1" source="9skn9m--ghzOTlHxGW_x-2" target="9skn9m--ghzOTlHxGW_x-3">
          <mxGeometry width="50" height="50" relative="1" as="geometry">
            <mxPoint x="230" y="50" as="sourcePoint" />
            <mxPoint x="280" as="targetPoint" />
          </mxGeometry>
        </mxCell>
        <mxCell id="9skn9m--ghzOTlHxGW_x-6" value="&lt;font style=&quot;font-size: 14px;&quot;&gt;Students&#39; record&lt;/font&gt;" style="text;html=1;align=center;verticalAlign=middle;resizable=0;points=[];autosize=1;strokeColor=none;fillColor=none;" vertex="1" parent="1">
          <mxGeometry x="145" y="50" width="110" height="20" as="geometry" />
        </mxCell>
        <mxCell id="9skn9m--ghzOTlHxGW_x-7" value="&lt;font style=&quot;font-size: 14px;&quot;&gt;Ask for next record&lt;/font&gt;" style="text;html=1;align=center;verticalAlign=middle;resizable=0;points=[];autosize=1;strokeColor=none;fillColor=none;" vertex="1" parent="1">
          <mxGeometry x="150" y="130" width="120" height="20" as="geometry" />
        </mxCell>
        <mxCell id="9skn9m--ghzOTlHxGW_x-8" value="" style="endArrow=classic;html=1;rounded=0;exitX=1;exitY=0.5;exitDx=0;exitDy=0;" edge="1" parent="1" source="9skn9m--ghzOTlHxGW_x-3">
          <mxGeometry width="50" height="50" relative="1" as="geometry">
            <mxPoint x="230" y="30" as="sourcePoint" />
            <mxPoint x="510" y="115" as="targetPoint" />
          </mxGeometry>
        </mxCell>
        <mxCell id="9skn9m--ghzOTlHxGW_x-9" value="&lt;font style=&quot;font-size: 14px;&quot;&gt;Students&#39; bill&lt;/font&gt;" style="text;html=1;align=center;verticalAlign=middle;resizable=0;points=[];autosize=1;strokeColor=none;fillColor=none;" vertex="1" parent="1">
          <mxGeometry x="385" y="90" width="90" height="20" as="geometry" />
        </mxCell>
        <mxCell id="9skn9m--ghzOTlHxGW_x-10" value="&lt;span style=&quot;font-size: 14px;&quot;&gt;Fig: An illegal DFD with a loop&lt;/span&gt;" style="text;html=1;align=center;verticalAlign=middle;resizable=0;points=[];autosize=1;strokeColor=none;fillColor=none;" vertex="1" parent="1">
          <mxGeometry x="130" y="210" width="190" height="20" as="geometry" />
        </mxCell>
      </root>
    </mxGraphModel>
  </diagram>
</mxfile>
